<?xml version="1.0" encoding="UTF-8"?>
<svg version="1.1" viewBox="0 0 2000 2000" width="1280" height="1280" xmlns="http://www.w3.org/2000/svg">
<path transform="translate(786,20)" d="m0 0h129l142 1h832l1 1v1729l-3 31-6 24-7 20-9 20-11 19-13 19-14 15-17 17-19 14-24 14-23 11-19 6-28 6-14 2-15 1h-17l-30-4-24-6-19-7-25-12-18-11-14-11-13-12-16-16-11-14-11-15-13-24-10-24-7-25-4-25-1-12-1-114-2-13-6-12-7-8-11-6-8-2-11-1-949-1v-752l2-1 39 5 30 2h24l26-2 31-4 31-6 31-8 29-10 24-10 29-14 24-14 30-20 13-10 17-14 24-22 6-7 15-15 1-2h2l2-4 7-8 13-17 11-16 12-19 10-17 8-16 12-26 9-24 7-21 7-27 5-24 4-27 2-22 1-33-2-34-3-28-5-27-7-30-8-26-10-27-13-28-16-30-22-33-12-16-12-14-9-11-14-14-7-8-2-1v-2l-4-2-9-9-11-9-15-12-11-7zm369 123-19 1-11 4-10 7-6 7-4 7-2 8v222l4 13 6 8 7 7 12 6 9 2h588l10-3 9-5 10-9 6-11 2-10v-217l-3-11-5-9-4-5-10-7-13-4-57-1zm108 415-126 1-10 3-11 7-7 8-4 8-2 8v15l5 14 11 12 9 5 9 3h597l9-4 9-6 8-9 4-8 2-8v-12l-3-11-5-9-4-5-10-7-12-4-117-1zm-110 208-182 1-10 3-9 6-5 5-6 8-4 13v11l3 11 6 10 7 7 16 8 8 1h752l10-3 11-6 8-8 5-9 3-11v-10l-3-11-5-9-4-5-10-7-12-4-105-1zm-529 207-26 1-10 3-11 7-6 7-5 10-2 8v13l4 12 6 9 9 8 10 5 4 1 98 1h958l80-1 8-3 10-6 7-7 6-11 2-9v-10l-3-12-6-10-4-5-11-7-5-2-6-1-82-1zm-8 208-18 1-11 3-12 9-7 10-4 12v13l4 12 6 9 9 8 13 6 5 1 92 1h958l78-1 10-3 11-6 8-8 6-11 2-9v-10l-3-11-6-10-8-8-12-6-5-1-73-1zm0 207-18 1-11 3-11 8-8 11-4 12v13l4 13 7 9 8 7 10 5 7 2 14 1h1059l56-1 13-4 10-7 8-9 4-8 2-8v-11l-3-11-5-9-5-6-11-7-5-2-6-1-154-1z" fill="#82AADD"/>
<path transform="translate(499,20)" d="m0 0h44l31 3 31 6 30 8 31 11 29 14 20 11 28 19 14 11 13 11 13 12 15 15 9 11 12 15 10 14 11 17 12 21 14 29 10 27 7 24 5 22 4 26 3 32v40l-4 34-6 28-6 22-9 26-13 30-11 20-13 21-13 18-14 17-12 14-16 16-8 7-14 12-18 13-18 12-15 9-23 12-19 9-27 10-21 6-31 6-44 5-14 1-25-1-37-4-27-5-27-7-27-10-25-12-25-13-30-20-12-9-11-9-13-12-14-13-7-8-12-14-11-14-11-15-17-28-8-16-10-22-10-27-8-29-5-26-3-23-2-32v-31l4-33 7-34 7-24 10-26 11-24 12-22 13-20 9-13 11-14 12-14 9-10 13-13 8-7 14-12 19-14 17-11 17-10 23-12 16-7 25-9 29-8 29-6 23-3zm16 83-10 3-9 6-5 5-6 8-3 8-1 6-1 53-16 8-16 10-15 13-10 12-9 14-8 17-5 16-2 9-1 12v16l3 19 5 16 5 12 9 16 13 15 7 7 14 10 15 9 15 6 16 4 32 4 9 3 9 6 7 8 5 12 1 5v9l-3 12-7 11-9 7-8 4-12 3-91 1-9 2-10 6-8 8-5 8-3 12v9l3 12 6 10 10 9 13 6 7 1 43 1 1 44 3 13 6 9 7 7 16 8 4 1h10l12-4 11-7 8-9 5-12 1-5 1-54 9-3 11-6 16-12 12-10 9-11 6-9 9-17 5-13 4-18 1-11v-14l-3-20-5-17-9-19-8-12-9-11-9-9-14-10-15-8-17-6-12-3-24-3-11-2-12-6-8-7-6-10-3-11v-11l4-13 6-8 8-7 11-5 5-1 93-1 11-3 12-7 8-9 5-10 2-8v-9l-3-12-6-10-4-5-11-7-11-3-47-1-1-46-3-11-6-10-5-5-8-6-12-4z" fill="#82AADD"/>
<path transform="translate(109,1679)" d="m0 0h1241l1 1 1 67 1 21 4 31 6 25 6 20 8 21 13 27 11 18 14 20 8 10 11 13 16 16v1h-142l-925-1-28-3-24-5-23-6-23-8-26-13-25-15-18-14-10-9-12-11-11-11-7-8-14-18-11-17-11-19-11-24-7-20-6-21-5-25-3-29v-13z" fill="#82AADD"/>
<path transform="translate(1186,227)" d="m0 0h496l1 1v122l-1 1h-496z" fill="#82AADD"/>
<path transform="translate(1446,1966)" d="m0 0 4 4h-142v-1l138-1z" fill="#FEFEFE"/>
</svg>
