<?xml version="1.0" encoding="UTF-8"?>
<svg version="1.1" viewBox="0 0 2000 2000" width="1280" height="1280" xmlns="http://www.w3.org/2000/svg">
<path transform="translate(1426,7)" d="m0 0h10l15 2 13 5 11 7 12 11 9 14 5 11 3 14v16l-2 12-6 16-16 33-11 24-8 16-17 35-13 28-19 39-11 23-16 34-14 29-13 27-13 28-8 17-8 16-17 35-13 28-17 35-14 29-13 28-19 39-11 23-16 34-15 31-11 24-8 16-13 27-6 13h370l21 3 17 7 15 9 12 11 7 7 10 15 7 15 4 14 2 14v15l-2 15-5 15-8 16-10 14-11 12-7 8h-2l-2 4-26 26-7 8-31 31-7 8-19 19-1 2h-2l-2 4-24 24-7 8-24 24-1 2h-2l-2 4-34 34-2 3h-2l-2 4-19 19-1 2h-2l-2 4-27 27-7 8-24 24-7 8-28 28-7 8-17 17-7 8-23 23-7 8-21 21-1 2h-2l-2 4-35 35-1 2h-2l-2 4-19 19-1 2h-2l-2 4-27 27-7 8-23 23-7 8-33 33-7 8-17 17-7 8-23 23-7 8-23 23-7 8-30 30-2 3h-2l-2 4-19 19-1 2h-2l-2 4-24 24-7 8-26 26-7 8-29 29-7 8-19 19-7 8-21 21-7 8-23 23-7 8-25 25-7 8-11 9-14 8-13 4-11 2-13-1-20-6-11-6-14-12-8-11-6-12-3-9-2-17 2-14 4-13 8-16 14-25 16-28 10-18 26-46 12-21 14-25 14-24 13-24 14-24 16-29 12-21 14-25 13-22 6-11 15-27 13-23 16-28 15-27 12-21 14-25 13-22 6-11 11-20 13-23 16-28 14-25 10-17 6-11 15-27 13-23 16-28 15-27 1-3h-399l-24-1-16-5-15-8-12-11-7-9-7-14-3-9-1-6v-18l3-14 5-12 6-9 11-13 14-15 11-12 9-10 9-11 10-10 1-2h2l2-4 15-16 7-8 9-10 5-6h2l2-4 13-14 7-8 12-13 11-12 27-30 12-13 7-8 10-11 7-8 14-15 11-12 7-8 9-10 14-15 7-8 18-20 14-15 7-8 9-10 11-12 12-13 7-8 9-10 7-8 14-15 9-10 7-8 11-12 12-13 9-10 7-8 24-26 9-10 7-8 12-13 11-12 9-10 7-8 9-10 12-13 10-11 7-8 11-12 12-13 9-10 9-11 12-12 7-8 11-12 7-8 9-10 16-17 7-8 9-10 7-8 15-16 7-8 9-10 22-24 9-10 7-8 11-12 12-13 7-8 10-11 7-8 6-7h2l2-4 15-16 9-11 10-10 7-8 12-13 7-8 11-12 9-10 11-9 16-8 8-2zm-5 89-15 15-7 8-12 14-8 8-7 8-12 13-9 10-7 8-22 24-10 11-7 8-12 13-9 10-11 12-7 8-12 13-9 10-12 13-7 8-11 12-12 13-10 11-7 8-11 12v2h-2l-7 8-3 3v2h-2l-7 8-18 20-12 13-11 12-7 8-11 12-7 8-5 5v2h-2l-9 11-8 8-7 8-22 24-7 8-11 12-9 10-11 12-7 8-12 13-9 10-12 13-7 8-33 36-7 8-22 24-9 10v2h-2l-7 8-11 12-7 8-13 14-7 8-13 14-7 8-12 13-7 8-13 14-7 8-13 14-7 8-12 13-18 20v2h-2l-7 8-11 12-9 10-11 12v2h-2l-7 8-11 12-7 8-12 13-7 8-12 13-9 10-13 14-7 8-13 14-7 8-13 14-6 8 1 1 415 1 15 2 12 5 11 7 10 9 9 12 5 10 4 15v20l-4 16-8 16-10 19-12 21-13 23-14 25-13 23-16 28-16 29-12 21-14 25-12 21-14 25-16 28-15 27-26 46-14 25-39 69-14 25-16 28-15 27-26 46-14 25-39 69-14 25-12 21-10 18-4 8 4-2 11-11 7-8 27-27 7-8 18-18 7-8 29-29 7-8 27-27 7-8 16-16 7-8 17-17v-2l3-1 7-8 29-29 7-8 25-25 7-8 22-22 7-8 21-21 7-8 24-24 7-8 26-26 7-8 21-21 7-8 17-17v-2l3-1 7-8 26-26v-2l3-1 7-8 24-24 7-8 17-17v-2h2l7-8 17-17v-2l3-1 7-8 29-29 7-8 25-25 7-8 20-20v-2h2l7-8 17-17v-2l3-1 7-8 22-22v-2l3-1 7-8 24-24 7-8 21-21v-2h2l7-8 17-17v-2l3-1 7-8 29-29 7-8 23-23 7-8 20-20 7-8 21-21v-2l3-1 7-8 4-6 2-6 1-8-2-8-4-8-8-7-8-3-372-1-19-2-13-5-14-9-8-7-8-11-7-14-3-13v-21l4-15 8-18 15-31 13-28 11-22 9-20 8-16 15-31 11-23 24-50 16-34 17-35 11-23 24-51 8-16 13-27 13-28 11-22 11-24 8-16 13-27 11-23 13-27 11-23 16-34 20-41 7-15z" fill="#84A8D9"/>
</svg>
