<?xml version="1.0" encoding="UTF-8"?>
<svg version="1.1" viewBox="0 0 2000 2000" width="1280" height="1280" xmlns="http://www.w3.org/2000/svg">
<path transform="translate(908,1227)" d="m0 0h737l15 2 14 6 11 8 7 7 9 14 5 14 1 6v603l-4 17-8 15-11 12-11 7-12 5-9 2-12 1h-728l-14-2-13-5-12-8-9-9-9-15-4-13-1-6v-604l4-16 8-14 8-10 11-8 12-6z" fill="#82ABDD"/>
<path transform="translate(907,694)" d="m0 0h880l12 2 10 4 12 7 8 7 9 13 5 11 2 13v301l-2 14-5 11-6 9-9 10-11 7-10 4-15 3-11 1h-859l-16-2-13-4-11-6-12-11-9-14-5-15-1-6v-303l4-15 9-16 10-11 13-8 14-5z" fill="#82ABDD"/>
<path transform="translate(1411,57)" d="m0 0h42l32 4 27 6 21 7 23 10 14 7 14 9 14 11 13 12 9 9 9 11 11 15 12 23 6 16 5 21 3 24v26l-4 24-7 23-8 18-8 15-12 18-10 13-12 14-15 15-8 7-14 12-18 14-34 22-18 10-28 15-44 19-24 9-31 11-35 10-44 11-42 9-36 6-52 7-51 5-58 4-31 1-51 1h-37l-64-2-55-4-54-5-36-5-46-7-39-8-41-10-29-8-38-13-32-13-18-8-19-9-21-12-27-18-13-10-13-11-8-7-21-21-11-14-10-14-8-13-8-16-7-16-8-26-4-20-2-16-1-17v-14l2-20 4-18 5-16 8-18 8-14 10-14 13-15 13-13 14-11 15-10 14-8 21-9 22-8 17-5 32-5 24-2h27l30 2 30 5 26 6 36 12 26 12 25 12 21 13 23 15 14 10 16 13 13 11 11 9 8 8 8 7 23 23 7 8 9 9 9 11 9 10 9 11 11 14 14 18 12 17 16 23 13 20 9 14 4 6h2l10-16 14-22 9-13 26-36 13-16 10-13 9-10 9-11 9-10 7-8 38-38 8-7 13-11 17-14 16-12 18-13 21-13 18-10 19-10 26-11 24-9 16-5 38-8 25-3zm-883 130-17 2-23 5-14 5-17 9-12 11-7 9-4 9-1 5v13l4 17 8 15 10 14 14 15 11 9 14 11 15 10 21 12 23 12 17 7 23 9 43 14 29 8 28 6 42 8 39 6 44 5 39 3h7l-5-9-20-30-14-20-16-21-16-20-12-14-11-12-30-30-8-7-11-10-17-13-18-13-16-10-17-10-23-11-20-7-16-5-23-4-19-2zm887 1-26 3-25 6-21 7-20 9-24 13-22 14-18 14-11 9-12 11-8 7-17 16-17 17-9 11-10 11-9 11-11 14-12 16-24 34-13 21-2 4 25-2 40-4 40-5 36-6 36-7 40-10 44-13 32-12 33-15 20-11 24-16 13-10 14-12 7-7 13-17 9-16 4-13v-19l-4-11-7-10-9-9-11-7-13-6-16-5-20-4-7-1z" fill="#82ABDD"/>
<path transform="translate(352,1227)" d="m0 0h275l16 3 16 8 10 9 7 8 8 16 3 12v605l-4 16-6 12-8 10-10 9-12 6-9 3-16 2h-265l-15-2-11-4-12-7-12-12-8-14-4-11-2-16v-591l3-16 5-12 9-13 10-9 12-7 12-4z" fill="#82ABDD"/>
<path transform="translate(212,694)" d="m0 0h416l12 2 12 5 10 6 11 11 8 13 4 10 2 9v303l-4 16-6 12-8 10-9 8-16 8-11 3-10 1h-408l-16-3-16-8-10-9-7-8-8-16-2-7-1-17v-288l2-15 5-12 8-12 9-9 14-8 12-4z" fill="#82ABDD"/>
</svg>
