<?xml version="1.0" encoding="UTF-8"?>
<svg version="1.1" viewBox="0 0 2000 2000" width="1280" height="1280" xmlns="http://www.w3.org/2000/svg">
<path transform="translate(983,620)" d="m0 0h35l18 2 24 5 23 7 19 8 23 12 12 8 12 9 13 11 12 11 12 13 13 18 15 25 9 19 7 19 6 24 4 26 1 11v28l-3 25-6 26-7 20-8 18-9 17-7 11-10 14-9 11-11 12-12 11-17 13-10 7-17 10-21 10-19 7-23 6-28 5h-49l-24-4-26-7-21-8-21-10-18-11-13-10-13-11-12-11-12-13-14-19-11-18-10-19-10-27-6-24-4-27v-44l4-25 7-26 8-21 10-20 11-18 11-15 12-14 7-8 8-7 13-11 20-14 21-12 23-10 26-8 25-5z" fill="#82AADC"/>
<path transform="translate(1705,620)" d="m0 0h36l17 2 25 5 23 7 19 8 16 8 18 11 18 14 10 9 8 7 13 14 12 16 12 19 10 19 8 20 6 19 5 24 2 13 1 15v24l-2 21-5 24-6 20-8 20-12 23-9 14-10 14-11 12-7 8-12 11-14 11-13 9-19 11-21 10-27 9-23 5-18 3h-50l-28-5-24-7-18-7-21-10-19-12-12-9-13-11-10-9-7-7-9-11-10-13-13-21-8-16-7-16-7-21-5-22-2-13-2-32 2-29 5-25 6-20 8-21 13-25 10-15 12-16 9-10 4-5h2l1-3 8-7 16-13 13-9 15-9 15-8 20-8 23-7 25-5z" fill="#82AADC"/>
<path transform="translate(260,620)" d="m0 0h35l17 2 21 4 24 7 22 9 21 11 16 10 16 13 14 12 11 11 11 14 10 14 14 24 9 20 7 20 6 25 3 21 1 9v34l-4 27-7 26-9 24-10 20-12 19-14 19-16 17-10 9-17 13-15 10-16 9-17 8-19 7-23 6-28 5h-49l-24-4-26-7-21-8-21-10-19-12-12-9-11-9-13-12-14-15-13-18-11-18-8-16-7-16-7-21-5-22-2-14-1-14v-33l3-25 5-21 7-21 8-18 10-19 12-18 9-12 15-16 8-8 11-9 17-13 18-11 16-8 19-8 23-7 25-5z" fill="#82AADC"/>
<path transform="translate(1563,680)" d="m0 0 2 1-22 22-2-1 7-7 3-4h2l1-3 8-7z" fill="#CFDEF1"/>
</svg>
